<?xml version="1.0" encoding="UTF-8" standalone="no"?>
<!-- Created with Fritzing (http://www.fritzing.org/) -->

<svg
   viewBox="0 0 644.99986 525.72793"
   version="1.2"
   x="0in"
   gorn="0"
   height="0.52572793in"
   id="svg4547"
   width="0.64499986in"
   y="0in"
   sodipodi:docname="generic-button-battery.svg"
   inkscape:version="1.4 (86a8ad7, 2024-10-11)"
   xmlns:inkscape="http://www.inkscape.org/namespaces/inkscape"
   xmlns:sodipodi="http://sodipodi.sourceforge.net/DTD/sodipodi-0.dtd"
   xmlns="http://www.w3.org/2000/svg"
   xmlns:svg="http://www.w3.org/2000/svg">
  <sodipodi:namedview
     id="namedview40"
     pagecolor="#ffffff"
     bordercolor="#000000"
     borderopacity="0.25"
     inkscape:showpageshadow="2"
     inkscape:pageopacity="0.0"
     inkscape:pagecheckerboard="0"
     inkscape:deskcolor="#d1d1d1"
     inkscape:document-units="in"
     showguides="false"
     inkscape:zoom="4.4271708"
     inkscape:cx="30.154698"
     inkscape:cy="25.185385"
     inkscape:window-width="1920"
     inkscape:window-height="974"
     inkscape:window-x="-11"
     inkscape:window-y="-11"
     inkscape:window-maximized="1"
     inkscape:current-layer="svg4547" />
  <desc
     id="desc1">
    <referenceFile>Adafruit DS1307 RTC Breakout_breadboard.svg</referenceFile>
  </desc>
  <metadata
     id="metadata5248" />
  <defs
     id="defs5246">
    <defs
       id="defs82" />
  </defs>
  <desc
     id="desc4549">Fritzing breadboard generated by brd2svg</desc>
  <g
     id="button_battery">
    <circle
       cx="582.50012"
       gorn="0.21"
       style="fill:none;stroke:#9a916c;stroke-width:23.1299"
       r="50.935017"
       cy="283.02164"
       id="circle1"
       connectorname="+1" />
    <circle
       cx="62.499969"
       gorn="0.22"
       style="fill:none;stroke:#9a916c;stroke-width:23.1299"
       r="50.935017"
       cy="283.02164"
       id="circle2"
       connectorname="+2" />
    <rect
       rx="33.33334"
       x="21.492331"
       gorn="0.59.0.0.0.2.0.0.0"
       style="fill:#cccccc;fill-opacity:1;stroke:none;stroke-width:17.3611;stroke-opacity:1"
       height="80.704193"
       id="rect7116"
       width="602.01581"
       y="-323.15808"
       transform="scale(1,-1)" />
    <circle
       cx="-317.69751"
       gorn="0.59.0.0.0.2.0.1.0.0"
       style="fill:#848484;fill-opacity:1;stroke-width:23.1526"
       r="248.75861"
       id="circle12"
       cy="276.96951"
       transform="scale(-1,1)" />
    <path
       gorn="0.59.0.0.0.2.0.2.0.0"
       style="opacity:0.5;fill:#c6c6c6;stroke-width:23.1526"
       d="m 317.6975,518.01138 c 28.90927,0 57.28511,-4.81576 84.32736,-14.41761 2.16338,-0.80111 3.33398,-3.18579 2.54863,-5.34916 -0.75569,-2.17867 -3.15615,-3.31917 -5.33436,-2.54864 -38.5852,13.63225 -80.87484,17.30703 -121.26781,10.69835 -2.20784,-0.38431 -4.43049,1.18541 -4.78611,3.45251 -0.37042,2.26664 1.18541,4.46013 3.42289,4.80093 13.49886,2.26664 27.30896,3.36362 41.0894,3.36362 z"
       id="path16" />
    <path
       gorn="0.59.0.0.0.2.0.3.0.0.0"
       style="opacity:0.43;fill:#020202;stroke-width:23.1526"
       d="m 539.75419,248.13064 c 0,-46.72011 -37.88879,-84.62372 -84.6089,-84.62372 -30.07987,0 -56.45534,15.73637 -71.436,39.38538 13.45447,-28.89446 42.67489,-48.98723 76.66664,-48.98723 46.73493,0 84.62372,37.88879 84.62372,84.62372 0,16.64026 -4.88984,32.13954 -13.17292,45.22354 5.03801,-10.83172 7.92746,-22.87842 7.92746,-35.62169 z"
       id="path22" />
    <path
       gorn="0.59.0.0.0.2.0.4.0.0.0"
       style="opacity:0.43;fill:#020202;stroke-width:23.1526"
       d="m 254.97244,248.13064 c 0,-46.72011 -37.88878,-84.62372 -84.62372,-84.62372 -30.07987,0 -56.47014,15.73637 -71.450816,39.38538 13.469266,-28.89446 42.704536,-48.98723 76.711096,-48.98723 46.69047,0 84.59408,37.88879 84.59408,84.62372 0,16.64026 -4.8602,32.13954 -13.18773,45.22354 5.038,-10.83172 7.95709,-22.87842 7.95709,-35.62169 z"
       id="path28" />
    <path
       gorn="0.59.0.0.0.2.0.5.0.0"
       style="fill:#999999;stroke-width:23.1526"
       d="m 499.5682,216.79127 c 0,-18.86296 -16.96628,-34.15473 -37.9036,-34.15473 -20.93737,0 -37.9036,15.2622 -37.9036,34.15473 v 40.28925 h 75.77756 l 0.0306,-40.28925 v 0 z"
       id="path36" />
    <path
       gorn="0.59.0.0.0.2.0.5.0.1"
       style="fill:#999999;stroke-width:23.1526"
       d="m 214.77488,216.79127 c 0,-18.86296 -16.96628,-34.15473 -37.91842,-34.15473 -20.92254,0 -37.91842,15.2622 -37.91842,34.15473 v 40.28925 h 75.77757 v -40.28925 h 0.0597 z"
       id="path38" />
    <rect
       x="-214.75104"
       gorn="0.59.0.0.0.2.0.6"
       style="fill:#cccccc;stroke-width:17.3611"
       height="181.78304"
       id="rect40"
       width="75.792389"
       y="257.04172"
       transform="scale(-1,1)" />
    <rect
       x="-499.56018"
       gorn="0.59.0.0.0.2.0.7"
       style="fill:#cccccc;stroke-width:17.3611"
       height="181.78304"
       id="rect42"
       width="75.777451"
       y="257.04172"
       transform="scale(-1,1)" />
    <path
       gorn="0.59.0.0.0.2.0.8.0.0"
       style="fill:#cccccc;stroke-width:23.1526"
       d="M 154.4276,11.899935 V 0.00133416 H 483.45398 V 11.899935 l 94.09222,95.544335 v 328.55176 c 0,38.98529 -31.17639,70.85811 -69.21336,70.85811 -38.05177,0 -89.09865,-65.12368 -183.1603,-65.12368 -94.09221,0 -146.81371,65.12368 -187.01429,65.12368 h -7.24584 c -40.185522,0 -73.051115,-31.87282 -73.051115,-70.85811 V 107.44427 L 154.42806,11.899935 Z M 418.10805,305.94272 v 130.36587 h 87.17236 V 305.94272 c 22.98226,-14.47687 38.30368,-40.03735 38.30368,-69.21334 0,-45.23835 -36.67373,-81.89726 -81.88245,-81.89726 -45.20871,0 -81.88244,36.68855 -81.88244,81.89726 -0.0153,29.17599 15.29188,54.75129 38.28885,69.21334 z m -284.79564,0 v 130.36587 h 87.14272 V 305.94272 c 22.98226,-14.47687 38.3185,-40.03735 38.3185,-69.21334 0,-45.23835 -36.64409,-81.89726 -81.88244,-81.89726 -45.22354,0 -81.867634,36.68855 -81.867634,81.89726 -0.03056,29.17599 15.291884,54.75129 38.288854,69.21334 z"
       id="path46" />
    <rect
       enable-background="new    "
       x="-483.43863"
       gorn="0.59.0.0.0.2.0.9"
       style="opacity:0.3;fill:#ffffff;stroke-width:17.3611"
       height="11.898598"
       id="rect48"
       width="329.02615"
       y="1.2035105e-05"
       transform="scale(-1,1)" />
    <path
       gorn="0.59.0.0.0.2.0.10.0.0"
       style="fill:none;stroke-width:23.1526"
       d="m 461.69516,154.82794 c 45.22353,0 81.86763,36.67374 81.86763,81.89727 0,29.19081 -15.30668,54.75129 -38.28886,69.21334 V 436.30442 H 418.10157 V 305.93855 c -22.99709,-14.49169 -38.3185,-40.03735 -38.3185,-69.21334 0.0153,-45.20871 36.67373,-81.89727 81.91209,-81.89727 z"
       id="path52" />
    <path
       gorn="0.59.0.0.0.2.0.10.0.1"
       style="fill:none;stroke-width:23.1526"
       d="m 176.87173,154.82794 c 45.26799,0 81.88246,36.67374 81.88246,81.89727 0,29.19081 -15.32149,54.75129 -38.3185,69.21334 V 436.30442 H 133.26333 V 305.93855 C 110.28107,291.44686 94.959653,265.9012 94.959653,236.72521 94.990209,191.5165 131.64821,154.82794 176.87173,154.82794 Z"
       id="path54" />
    <path
       gorn="0.59.0.0.0.2.0.10.0.2"
       style="fill:#898989;stroke-width:23.1526"
       d="m 577.54156,107.43687 v 328.55175 c 0,13.02474 -3.5266,25.19005 -9.57221,35.71059 V 98.916697 Z"
       id="path56" />
    <path
       enable-background="new    "
       gorn="0.59.0.0.0.2.0.10.0.3"
       style="opacity:0.3;fill:#ffffff;stroke-width:23.1526"
       d="m 577.54156,107.43687 v 328.55175 c 0,13.02474 -3.5266,25.19005 -9.57221,35.71059 V 98.916697 Z"
       id="path58" />
    <path
       gorn="0.59.0.0.0.2.0.10.0.4"
       style="fill:#898989;stroke-width:23.1526"
       d="m 57.848795,107.43687 9.572211,-8.312715 V 470.84164 c -6.060418,-10.3131 -9.572211,-22.2117 -9.572211,-34.8808 z"
       id="path60" />
    <path
       enable-background="new    "
       gorn="0.59.0.0.0.2.0.10.0.5"
       style="opacity:0.3;fill:#ffffff;stroke-width:23.1526"
       d="m 57.848795,107.43687 9.572211,-8.312715 V 470.84164 c -6.060418,-10.3131 -9.572211,-22.2117 -9.572211,-34.8808 z"
       id="path62" />
    <path
       gorn="0.59.0.0.0.2.0.11.0.0"
       style="opacity:0.5;fill:#ffffff;stroke-width:23.1526"
       d="m 313.60875,51.157502 v 45.342069 h -43.66768 v 7.408839 h 43.66768 v 45.69769 h 7.95708 v -45.69769 h 43.66768 V 96.499571 H 321.56583 V 51.157502 Z"
       id="path66" />
    <path
       gorn="0.59.0.0.0.2.0.12.0.0"
       style="fill:#b3b3b3;stroke-width:23.1526"
       d="m 434.37045,259.74863 h 54.72165 c 2.31156,0 4.19341,-1.86703 4.19341,-4.17858 0,-2.28192 -1.88185,-4.17859 -4.19341,-4.17859 h -54.72165 c -2.31156,0 -4.19341,1.89667 -4.19341,4.17859 -0.0153,2.31155 1.86703,4.17858 4.19341,4.17858 z"
       id="path70" />
    <path
       gorn="0.59.0.0.0.2.0.13.0.0"
       style="fill:#b3b3b3;stroke-width:23.1526"
       d="m 149.50767,259.74863 h 54.72165 c 2.31156,0 4.19341,-1.86703 4.19341,-4.17858 0,-2.28192 -1.88185,-4.17859 -4.19341,-4.17859 h -54.72165 c -2.29674,0 -4.17859,1.89667 -4.17859,4.17859 0,2.31155 1.88185,4.17858 4.17859,4.17858 z"
       id="path74" />
    <path
       enable-background="new    "
       gorn="0.59.0.0.0.2.0.14"
       style="opacity:0.3;fill:#ffffff;stroke-width:17.3611"
       d="m 499.47161,214.42718 c 0,-17.44047 -17.14401,-31.66529 -37.79985,-31.66529 -20.67049,0 -37.6665,14.1805 -37.6665,31.66529 0,-15.03988 19.42605,-27.29411 37.6665,-27.29411 18.24047,0 37.79985,12.25421 37.79985,27.29411 z"
       id="path76" />
    <path
       enable-background="new    "
       gorn="0.59.0.0.0.2.0.15"
       style="opacity:0.3;fill:#ffffff;stroke-width:17.3611"
       d="m 214.61736,214.42718 c 0,-17.44047 -17.14401,-31.66529 -37.81478,-31.66529 -20.68542,0 -37.6665,14.1805 -37.6665,31.66529 0,-15.03988 19.41112,-27.29411 37.6665,-27.29411 18.24046,0 37.81478,12.25421 37.81478,27.29411 z"
       id="path78" />
  </g>
</svg>
